<svg xmlns="http://www.w3.org/2000/svg" viewBox="0 0 321.46 50.38"><defs><style>.cls-1{fill:#fff;}.cls-2{fill:#003378;}.cls-3{fill:#686767;}</style></defs><g id="레이어_2" data-name="레이어 2"><g id="레이어_1-2" data-name="레이어 1"><path class="cls-1" d="M0,25.19A25.19,25.19,0,1,0,25.19,0,25.22,25.22,0,0,0,0,25.19Z"/><path class="cls-2" d="M.75,25.18A24.45,24.45,0,1,1,25.19,49.64,24.47,24.47,0,0,1,.75,25.18Z"/><path class="cls-1" d="M25.19,43A17.82,17.82,0,1,1,43,25.19,17.81,17.81,0,0,1,25.19,43Z"/><path class="cls-1" d="M4.58,31a.69.69,0,1,0,.69-.68A.69.69,0,0,0,4.58,31Z"/><path class="cls-1" d="M46.05,31.07a.7.7,0,1,1-.7-.7A.7.7,0,0,1,46.05,31.07Z"/><path class="cls-1" d="M5.57,17a1.7,1.7,0,0,0-1.32.07,2,2,0,0,0-.92,1.2,1.94,1.94,0,0,0,.07,1.49,1.85,1.85,0,0,0,1.09.9A1.77,1.77,0,0,0,6.8,19.41,1.85,1.85,0,0,0,5.57,17Zm1,2.14a1.48,1.48,0,0,1-2,.81c-1.16-.37-1.12-1.08-1-1.47a1.2,1.2,0,0,1,.59-.7,1.78,1.78,0,0,1,1.35-.05,1.58,1.58,0,0,1,1,.71A.94.94,0,0,1,6.58,19.13Z"/><path class="cls-1" d="M10.4,12.52l-.63-.61.12-.13.29.19a.6.6,0,0,0,.74-.14.52.52,0,0,0,.05-.75.85.85,0,0,0-.81-.17L9.9,11a1.41,1.41,0,0,1-1.29-.27,1,1,0,0,1,.1-1.43c.38-.39.6-.42.6-.42l.54.53-.13.14a.54.54,0,0,0-.36-.19.56.56,0,0,0-.48.19.44.44,0,0,0,0,.66c.13.13.28.18.77.1l.16,0c.71-.11,1.08,0,1.4.27a1,1,0,0,1,.29.91,1.29,1.29,0,0,1-.37.67A1.33,1.33,0,0,1,10.4,12.52Z"/><path class="cls-1" d="M40.61,13.34l.73-.5.1.15-.25.25a.61.61,0,0,0,0,.75.53.53,0,0,0,.72.2c.19-.13.31-.3.34-.75v-.27A1.44,1.44,0,0,1,42.79,12a1,1,0,0,1,1.37.4,1.21,1.21,0,0,1,.29.67l-.63.43-.11-.16A.55.55,0,0,0,44,13a.53.53,0,0,0-.09-.5.44.44,0,0,0-.64-.17c-.14.1-.22.24-.25.74v.16c0,.71-.19,1.06-.56,1.31a1,1,0,0,1-.94.1,1.46,1.46,0,0,1-.58-.51A1.32,1.32,0,0,1,40.61,13.34Z"/><path class="cls-1" d="M13.09,7.91c.18-.14.23-.08.38.12l.13-.1L13,7.16l-.13.1c.14.2.19.26,0,.4l-.55.41-.71-1,.54-.4c.25-.19.36-.06.5.13l.14-.1-.44-.58L10.56,7.54l.09.13c.13-.09.36-.29.55,0l1.53,2.05c.23.3.11.35-.1.51l.11.14L14.6,9l-.47-.63-.13.1c.2.28.17.46,0,.6l-.59.44-.85-1.14h0Z"/><path class="cls-1" d="M37.39,8.11c.19.13.15.19,0,.4l.13.09.54-.8-.14-.09c-.14.2-.18.27-.38.14L37,7.47l.66-1,.55.37c.26.18.18.33,0,.52l.13.1.4-.61L36.9,5.6l-.09.13c.12.09.39.24.21.51L35.6,8.36c-.21.31-.3.22-.52.08l-.1.14,1.94,1.3.43-.65-.14-.1c-.19.29-.37.31-.57.18L36,8.91l.79-1.18h0Z"/><path class="cls-1" d="M15.05,5.15c-.1-.2,0-.25.25-.38l-.08-.15-1.29.66.08.15s.32-.24.46,0L15.72,7.9c.11.2,0,.26-.24.39l.07.15,1.39-.72-.07-.14c-.21.11-.44.26-.56,0Z"/><path class="cls-1" d="M22.52,4.3l-.29-1.42c0-.22.07-.25.34-.3l0-.16-1.24.24,0,.16s.38-.13.43.16c0,0,.3,1.49.3,1.49a1.5,1.5,0,0,1,0,1.14.85.85,0,0,1-.55.36.82.82,0,0,1-.58-.07c-.2-.11-.41-.31-.55-1L20,3.32c0-.22.06-.25.34-.3l0-.17-1.42.29,0,.16s.38-.13.44.15c0,.07.32,1.59.32,1.59a1.56,1.56,0,0,0,.65,1.14,1.58,1.58,0,0,0,1.09.12,1.49,1.49,0,0,0,.9-.53A1.81,1.81,0,0,0,22.52,4.3Z"/><path class="cls-1" d="M30.75,3.42c.05-.22.16-.2.43-.14l0-.16-1.41-.33,0,.16s.4,0,.33.32S29.49,6,29.49,6c-.06.22-.17.2-.45.14l0,.16,1.52.35,0-.16c-.23-.05-.5-.08-.44-.34Z"/><path class="cls-1" d="M45.52,15.67c.2-.1.26,0,.38.25l.15-.07-.64-1.3-.15.07s.23.33,0,.46l-2.47,1.21c-.2.1-.26,0-.38-.25l-.15.07.69,1.41.14-.08c-.1-.21-.25-.44,0-.55Z"/><path class="cls-1" d="M46.7,17.35l-.72.1.05.18c.24,0,.41-.05.5.26,0,.05,0,.16.2.67l-2.72.8c-.22.06-.26-.05-.33-.32l-.16.05.44,1.5.15-.05c-.06-.22-.17-.47.09-.55l2.72-.8c.15.5.18.61.2.66.09.31-.07.39-.29.49l.06.18.66-.3Z"/><path class="cls-1" d="M41.74,9.7A1.52,1.52,0,0,0,41.26,9l-1-1-.11.12s.32.24.12.45-1.94,1.95-1.94,1.95c-.16.17-.25.09-.45-.11l-.11.12,1.11,1.09.11-.11c-.17-.16-.38-.33-.19-.52l.73-.74.3.29-.13.79a2.34,2.34,0,0,0,0,.94,1.09,1.09,0,0,0,.3.43l.34.33.1-.11-.08-.1a.92.92,0,0,1-.14-.56c0-.34.06-.77.12-1.31,0,0,0-.17,0-.22a1.3,1.3,0,0,0,1.15-.32A.8.8,0,0,0,41.74,9.7Zm-.82.43a.8.8,0,0,1-.65.29.47.47,0,0,1-.27-.17L39.77,10l1.08-1.09.15.16A.7.7,0,0,1,40.92,10.13Z"/><path class="cls-1" d="M4.76,22.89a1,1,0,0,1-.44-.1,15.25,15.25,0,0,1-1.36-1,.63.63,0,0,1-.19-.25.5.5,0,0,1,0-.19.68.68,0,0,0,0-.12l-.16,0-.11,1.16.17,0s0-.09,0-.12,0-.06.08-.06A.73.73,0,0,1,3,22.3c.06,0,1.12.75,1.12.75s-1.25.58-1.36.62l-.14,0a0,0,0,0,1,0,0v0s0-.11,0-.11l-.16,0-.12,1.32h.16a.66.66,0,0,1,.08-.28,1.07,1.07,0,0,1,.35-.28c.26-.14,1.31-.65,1.38-.68a1,1,0,0,1,.48-.05l.76.07c.3,0,.29.18.27.41l.15,0L6,22.51l-.15,0c0,.26,0,.5-.36.47Z"/><path class="cls-1" d="M45.66,23.62a1,1,0,0,1,.44,0,15.06,15.06,0,0,1,1.53.72.74.74,0,0,1,.24.21.35.35,0,0,1,.06.18s0,.13,0,.13l.16,0L48,23.7h-.17s0,.09,0,.12a.06.06,0,0,1-.07.07.48.48,0,0,1-.22,0l-1.25-.54s1.12-.8,1.22-.86a.38.38,0,0,1,.13-.06,0,0,0,0,1,.05,0v0a.59.59,0,0,1,0,.11h.16l-.13-1.31h-.16a.58.58,0,0,1,0,.3.92.92,0,0,1-.29.33c-.22.19-1.16.9-1.22.93a1.07,1.07,0,0,1-.46.15l-.76.07c-.3,0-.32-.13-.34-.36l-.16,0,.16,1.55.14,0c0-.26-.07-.5.27-.53Z"/><path class="cls-1" d="M9.51,13.79,9.39,14,6,14.76l1.66,1c.36.22.47-.06.6-.25l.14.09-.69,1.11-.14-.08c.11-.18.24-.35-.1-.56L4.89,14.52,5,14.33l3.45-.75L6.73,12.51c-.3-.19-.44.06-.53.21l-.14-.08.63-1,.15.09c-.11.16-.22.31.08.5Z"/><path class="cls-1" d="M27.45,6h-.24L24.93,3.36l-.12,1.95c0,.42.27.39.51.4l0,.17L24,5.8V5.63c.21,0,.42,0,.45-.34s.18-3,.18-3h.22L27.15,5s.1-1.66.12-2-.26-.36-.44-.37V2.42l1.21.07v.17c-.2,0-.38,0-.41.32S27.45,6,27.45,6Z"/><path class="cls-1" d="M35.9,5.13,36,5,34.89,4.5l-.07.15.12.06c.05,0,.08,0,.07.09a1,1,0,0,1-.13.2l-1,1-.63.63c0-.09.06-1.35.09-1.91l0-.48a.21.21,0,0,1,0-.13.11.11,0,0,1,.11,0l.12,0L33.71,4l-1.23-.54-.06.15a.62.62,0,0,1,.23.16.69.69,0,0,1,.06.38l-.05,3.3.14.07,1.87-1.73.67-.61a.48.48,0,0,1,.45-.09Z"/><path class="cls-1" d="M26.34,44.4v1.08h-.28V44.4h-.74v.08h0c.08,0,.15.13.15.26v2.34H23.94V45h1V44.5H23.17v.08h0c.07,0,.14.13.14.26v2.73h2.16v.79h.59V46h.28v2.39H27v-4h-.64Z"/><path class="cls-1" d="M43.47,38.42,41,36.4h0l-2,2.4.38.31L41,37.2l2.05,1.71-.31.37-1.07-.89-.39.47,1.08.89-.21.25-1.08-.89-.45.54.07.06h0c0-.06.19,0,.29,0l.81.67-.46.55.39.31,2.37-2.85s-.36-.29-.38-.32Z"/><path class="cls-1" d="M17.69,42.9,16,46.5l.58.27,1.66-3.6h0Z"/><path class="cls-1" d="M16.81,42.5a.3.3,0,0,1,0,.08h0c.06,0,.07.17,0,.3l-.31.66-.6-.27s-.19.41-.21.45l.6.27s-1,2.13-1,2.17l.51.24s1.64-3.57,1.65-3.61h0Z"/><path class="cls-1" d="M15.16,43.61l0,0h0a3.29,3.29,0,0,0,1-1.25h0l-.83-.39,0,.08h0s.17.13,0,.42h0a3,3,0,0,1-1.8,1.43s.14.36.15.38h0a3.06,3.06,0,0,0,1.06-.39h0v0A3.84,3.84,0,0,1,15.11,45l.52-.3A5.06,5.06,0,0,0,15.16,43.61Z"/><path class="cls-1" d="M33.39,46l2.39-1.15s.35.74.37.77l.57-.27-.58-1.22-3,1.43S33.37,46,33.39,46Z"/><path class="cls-1" d="M35,41.78l-.7.33a.26.26,0,0,0,0,.08h0c.07,0,.19.05.24.17l.84,1.74.57-.27-.31-.65.56-.27s-.17-.37-.19-.41l-.56.28S35,41.81,35,41.78Z"/><path class="cls-1" d="M32.4,44.51a1.14,1.14,0,0,0,2-1,.93.93,0,0,0-.62-.49l.43-.21s-.2-.41-.21-.44l-.81.38-.14-.3h0l-.7.34,0,.08h0c.06,0,.16,0,.22.15l0,0-.86.41s.2.41.22.44l.38-.18A1,1,0,0,0,32.4,44.51Zm1.27,0a.57.57,0,0,1-.75-.28.56.56,0,0,1,.25-.76.58.58,0,0,1,.5,1Z"/><path class="cls-1" d="M8.06,38.69h0l-.52-.58-.06.06h0s0,.19-.1.27l-.71.62,2,2.29L9,41,7.46,39.21Z"/><path class="cls-1" d="M9.26,38.83l.54.62L9,40.13l.42.48,2.16-1.89-.52-.59-.06.06h0c.05.06,0,.19-.11.28l-.11.1-.59-.67a1.18,1.18,0,0,0-.3-.93A1.1,1.1,0,1,0,8.26,38.4,1.2,1.2,0,0,0,9.26,38.83Zm1.17.07-.26.22-.4-.46.1-.08a.73.73,0,0,0,.14-.16ZM8.7,37.24a.59.59,0,1,1,.77.89.59.59,0,1,1-.77-.89Z"/><path class="cls-2" d="M25.19,16.63a2.62,2.62,0,1,0,2.62,2.62A2.62,2.62,0,0,0,25.19,16.63Z"/><path class="cls-2" d="M18.86,38a26.85,26.85,0,0,0,6.33,4,26.65,26.65,0,0,0,6.33-4L25.19,31.7Z"/><path class="cls-2" d="M38.07,23V14.21s-7.45.24-12.88-3.93c-5.42,4.17-12.87,3.93-12.87,3.93V23a24.5,24.5,0,0,0,.27,3.93,69.6,69.6,0,0,1,25.2,0A23.88,23.88,0,0,0,38.07,23ZM25.19,24.36a5.11,5.11,0,1,1,5.12-5.11A5.11,5.11,0,0,1,25.19,24.36Z"/><path class="cls-2" d="M12.72,27.61c.06.27.12.54.19.81A18.75,18.75,0,0,0,16.8,36l8.39-8.41L33.58,36a18.75,18.75,0,0,0,3.89-7.55c.07-.27.13-.54.19-.81a69.37,69.37,0,0,0-24.94,0Z"/><path class="cls-1" d="M16.45,21.29h1.2a.07.07,0,0,0,.08-.07V18.75a.08.08,0,0,0-.08-.08h-1a.31.31,0,0,0-.31.31v2.24A.08.08,0,0,0,16.45,21.29Z"/><path class="cls-1" d="M14.78,21.29H16a.07.07,0,0,0,.07-.07V19a.3.3,0,0,0-.3-.31h-1a.08.08,0,0,0-.07.08v2.47A.07.07,0,0,0,14.78,21.29Z"/><path class="cls-1" d="M18.29,19.1H18v2.46H16.51v0a.29.29,0,0,1-.58,0v0H14.4V19.1h-.25a.08.08,0,0,0-.08.08v2.6a.07.07,0,0,0,.08.07h1.52a.62.62,0,0,0,.55.33.6.6,0,0,0,.54-.33h1.53a.08.08,0,0,0,.08-.07v-2.6A.09.09,0,0,0,18.29,19.1Z"/><path class="cls-1" d="M34.53,21h-1a.08.08,0,0,0-.09.09l.33,2.08a.17.17,0,0,0,.17.15h.17a.17.17,0,0,0,.17-.15l.33-2.08C34.63,21.06,34.59,21,34.53,21Z"/><path class="cls-1" d="M34.68,20.11c.25-.22.85-.88.79-1.24s-1.18-1-1.25-1.41a1.21,1.21,0,0,1,.15-.67s0-.05-.07,0-.93.7-.93,1.17a.84.84,0,0,0,.35.57,6.15,6.15,0,0,1,.6.47.7.7,0,0,1,.21.29c.09.25-.17.65-.33.84h-.36a1.71,1.71,0,0,0,.37-.64c.14-.56-1.25-.7-1.05-1.54h0s0-.05,0,0-.56.53-.56.9.64.61.94,1a.29.29,0,0,1,0,.27h-.57s-.14,0-.08.12l.15.48a.13.13,0,0,0,.12.06H35c.1,0,.12-.06.12-.06l.16-.49c0-.12-.09-.11-.09-.11Z"/><path class="cls-1" d="M22.69,36.63l-.58.39a.06.06,0,0,0,0,.06s0,.06.05.06h.05l.08,0a.75.75,0,0,1,.2-.08v1.34c0,.08,0,.1-.07.11h-.19a.07.07,0,0,0-.06.07s0,.05.08.05h.85c.07,0,.08,0,.08-.05a.07.07,0,0,0-.06-.07h-.16c-.05,0-.07,0-.07-.11V36.68c0-.08,0-.09-.06-.09Z"/><path class="cls-1" d="M23.8,38.09a.51.51,0,0,1,.26-.44c.21.12.39.23.39.45a.32.32,0,0,1-.32.35A.33.33,0,0,1,23.8,38.09Zm-.26-1a.54.54,0,0,0,.33.46.65.65,0,0,0-.43.57h0c0,.33.27.53.67.53a.63.63,0,0,0,.71-.6.67.67,0,0,0-.42-.56.55.55,0,0,0,.33-.47c0-.26-.22-.42-.55-.42S23.54,36.88,23.54,37.08Zm.34,0a.25.25,0,0,1,.27-.26.24.24,0,0,1,.24.27.36.36,0,0,1-.21.34C24,37.25,23.88,37.16,23.88,37Z"/><path class="cls-1" d="M25.55,38.09a.51.51,0,0,1,.26-.44c.21.12.39.23.39.45a.32.32,0,0,1-.32.35A.34.34,0,0,1,25.55,38.09Zm-.26-1a.52.52,0,0,0,.33.46.65.65,0,0,0-.43.57c0,.33.26.53.67.53a.63.63,0,0,0,.71-.6.68.68,0,0,0-.42-.56.54.54,0,0,0,.33-.47c0-.26-.22-.42-.56-.42S25.29,36.88,25.29,37.08Zm.33,0a.26.26,0,0,1,.28-.26.24.24,0,0,1,.24.27.36.36,0,0,1-.21.34C25.71,37.25,25.62,37.16,25.62,37Z"/><path class="cls-1" d="M28,36.62H27.2c-.07,0-.08,0-.08.06l-.07.67a.08.08,0,0,0,.08.09c.17,0,.61.17.61.57a.38.38,0,0,1-.38.42c-.21,0-.31-.1-.31-.3s0-.08-.06-.08-.06.06-.06.07v.33s0,.1.06.13h0a.62.62,0,0,0,.25,0,.78.78,0,0,0,.87-.75c0-.43-.43-.66-.84-.73,0,0,0-.2,0-.25h.43c.18,0,.18.06.18.11a.05.05,0,0,0,.06.06A.06.06,0,0,0,28,37l0-.33s0-.09-.06-.09Z"/><path class="cls-1" d="M16.8,36A21.13,21.13,0,0,0,18.86,38l6.33-6.34L31.52,38A20.07,20.07,0,0,0,33.58,36l-8.39-8.41Z"/><path class="cls-1" d="M25.19,25.73a69.64,69.64,0,0,0-12.6,1.15c0,.24.09.48.13.73a69.37,69.37,0,0,1,24.94,0c.05-.25.09-.49.13-.73A69.64,69.64,0,0,0,25.19,25.73Z"/><path class="cls-1" d="M30.31,19.25a5.12,5.12,0,1,0-5.12,5.11A5.11,5.11,0,0,0,30.31,19.25Zm-5.12,2.62a2.62,2.62,0,1,1,2.62-2.62A2.62,2.62,0,0,1,25.19,21.87Z"/><path class="cls-3" d="M65.19,14.89a7.33,7.33,0,0,1-3.24.72,7.18,7.18,0,0,1-5.07-2,6.15,6.15,0,0,1-2.12-4.72A6.2,6.2,0,0,1,56.88,4.2a7.18,7.18,0,0,1,5.07-2A7.5,7.5,0,0,1,65.2,3a6.59,6.59,0,0,1,2.44,2H72.8V4a2.11,2.11,0,0,0-.28-1.07c-.18-.32-.38-.48-.59-.48h0V1.91h4.72v17.3H72.8V13H67.64A7.27,7.27,0,0,1,65.19,14.89Zm-2.73,3.16v4.8H77v3H58.61V20.14a2.27,2.27,0,0,0-.26-1.08c-.17-.31-.37-.47-.61-.47v-.54ZM59.59,6.11a4.23,4.23,0,0,0-1,2.8,4.17,4.17,0,0,0,1,2.8A3,3,0,0,0,62,12.87a3,3,0,0,0,2.37-1.16,4.13,4.13,0,0,0,1-2.8,4.19,4.19,0,0,0-1-2.8A3,3,0,0,0,62,5,3,3,0,0,0,59.59,6.11ZM72.8,10V7.9H69a1.79,1.79,0,0,1,.11.51,4.41,4.41,0,0,1,0,.52,4.45,4.45,0,0,1,0,.53A2,2,0,0,1,69,10Z"/><path class="cls-3" d="M89.88,13.1a12.63,12.63,0,0,1,1.28,1c.63.53,1.21,1.06,1.73,1.59a12,12,0,0,1,1.33,1.56l-2.14,2.82a20.76,20.76,0,0,0-1.39-1.9c-.59-.74-1.13-1.36-1.6-1.87-.3-.32-.63-.64-1-1A11.34,11.34,0,0,0,87,14.47a22.93,22.93,0,0,1-2.21,2.71,14.48,14.48,0,0,1-2.72,2.25l-1.71-1.71a22,22,0,0,0,2.68-2.95,15.37,15.37,0,0,0,2.12-3.67c.38-.95.7-1.91,1-2.86a11.44,11.44,0,0,0,.43-2.91,2.55,2.55,0,0,0-.39-1.75,1.35,1.35,0,0,0-.8-.53V2.51H91A19.2,19.2,0,0,1,90.26,8a20.44,20.44,0,0,1-1.79,4.27A14.49,14.49,0,0,1,89.88,13.1ZM99.54,1.91v24H95.93V11.46h-3.8v-3h3.8V4a2.26,2.26,0,0,0-.26-1.1c-.17-.32-.37-.48-.61-.48V1.91Zm5.42,0v24h-3.85V1.91Z"/><path class="cls-3" d="M109.43,21.17V4.65a2.29,2.29,0,0,0-.25-1.1c-.18-.31-.38-.47-.61-.47V2.56h10.82v3h-6.11V18.18h9.14V4.05a2.21,2.21,0,0,0-.27-1.1c-.18-.31-.38-.47-.59-.47V1.94H126V8.53h1.74V1.94h3.82v24h-3.82V11.48H126V25.91h-3.58V21.17Z"/><path class="cls-3" d="M135.44,5.71v-3h5.72V2.56a2.21,2.21,0,0,0-.29-.95c-.17-.27-.35-.4-.55-.4h0V.69H145v2h5.37v3h-3.14A5.56,5.56,0,0,1,149,7.63a5,5,0,0,1,.63,2.44,5.25,5.25,0,0,1-2,4.13,7.67,7.67,0,0,1-9.63,0,5.27,5.27,0,0,1-2-4.13,5,5,0,0,1,.62-2.44,6,6,0,0,1,1.68-1.92Zm21.86,12v8.16h-3.85V20.73h-16v-3ZM140.63,7.39a3.75,3.75,0,0,0-.88,2.49,3.79,3.79,0,0,0,.88,2.49,2.72,2.72,0,0,0,2.13,1,2.75,2.75,0,0,0,2.16-1,3.74,3.74,0,0,0,.88-2.49,3.7,3.7,0,0,0-.88-2.49,2.73,2.73,0,0,0-2.16-1A2.71,2.71,0,0,0,140.63,7.39Zm16.62-5.45V8.5H161v3h-3.77v4.23h-3.86V4a2.26,2.26,0,0,0-.25-1.1c-.18-.32-.38-.48-.61-.48V1.94Z"/><path class="cls-3" d="M180,5.54H165v-3H183.8V21.71h2.33v3H163.76v-3h4V15.39a2.18,2.18,0,0,0-.26-1.1c-.17-.32-.37-.47-.61-.47V13.3h4.29v8.41h2.06V13.3h3.69v8.41H180Z"/><path class="cls-3" d="M57.92,40.53a4,4,0,0,1-1.38-3.08,4.08,4.08,0,0,1,1.38-3.09,4.95,4.95,0,0,1,6.64,0,4.08,4.08,0,0,1,1.38,3.09,4,4,0,0,1-1.38,3.08,4.95,4.95,0,0,1-6.64,0Zm3.65,2.87v3.14H71v2h-12V44.77a1.35,1.35,0,0,0-.17-.7c-.11-.21-.24-.31-.39-.31V43.4Zm-1.88-7.79a2.94,2.94,0,0,0,0,3.66,2,2,0,0,0,3.09,0,2.9,2.9,0,0,0,0-3.66,2,2,0,0,0-3.09,0Zm11,8.22H68.17V34.26a1.46,1.46,0,0,0-.16-.71.45.45,0,0,0-.4-.31v-.36h3.08Z"/><path class="cls-3" d="M82.11,33.29a7.87,7.87,0,0,1-.85,3.78,8.65,8.65,0,0,1-2.11,2.63,9.17,9.17,0,0,1-2.87,1.66,10.3,10.3,0,0,1-2.7.61l-1.1-1.42a12.63,12.63,0,0,0,2.46-.88,8.92,8.92,0,0,0,1.86-1.21,6.58,6.58,0,0,0,1.34-1.53,5.72,5.72,0,0,0,.7-1.71H73.61V33.29ZM75.43,43.86a.56.56,0,0,0-.44-.33v-.36h3.08v3.44h9.46v2h-12V44.38A1.37,1.37,0,0,0,75.43,43.86Zm11.73-5.77v5.77H84.64v-9.6a1.46,1.46,0,0,0-.16-.71.45.45,0,0,0-.4-.31v-.36h3.08v3.24h2.46v2Z"/><path class="cls-3" d="M95.66,37.47c.25.11.49.22.73.35a9,9,0,0,1,1.13.77,5.32,5.32,0,0,1,.94,1l-1.53,1.57a8.26,8.26,0,0,0-.73-1,7.94,7.94,0,0,0-1-.95,6.69,6.69,0,0,0-.62-.48,4.76,4.76,0,0,0-.69-.4h0s0,0,0,0a17.31,17.31,0,0,1-2,1.77,9.18,9.18,0,0,1-1.7,1l-1-1A11.44,11.44,0,0,0,90.75,39a9.13,9.13,0,0,0,1.1-1.24,8.87,8.87,0,0,0,.75-1.29A5,5,0,0,0,93,35.1a1.65,1.65,0,0,0-.08-1,.93.93,0,0,0-.5-.46v-.36H96a6,6,0,0,1-.26,2.15,6.63,6.63,0,0,1-.87,1.77A6.55,6.55,0,0,1,95.66,37.47ZM103.14,43c1.21.68,1.82,1.48,1.82,2.43a2.91,2.91,0,0,1-1.82,2.43,10,10,0,0,1-8.78,0,2.91,2.91,0,0,1-1.82-2.43c0-.95.61-1.75,1.82-2.43a10,10,0,0,1,8.78,0Zm-1.92,3.56c.67-.33,1-.71,1-1.13s-.34-.8-1-1.13a5.59,5.59,0,0,0-2.48-.5,5.48,5.48,0,0,0-2.45.5c-.67.33-1,.7-1,1.13s.33.8,1,1.13a5.48,5.48,0,0,0,2.45.5A5.59,5.59,0,0,0,101.22,46.57ZM105,41.63h-2.52V38.14h-1.27v3.49H98.81V34.26a1.35,1.35,0,0,0-.16-.69.54.54,0,0,0-.4-.33v-.36h2.92v3.28h1.27V32.88H105Z"/><path class="cls-3" d="M113.5,34.94a8.33,8.33,0,0,1,1.13,4.43,8.31,8.31,0,0,1-1.13,4.43,2.91,2.91,0,0,1-5.4,0A8.31,8.31,0,0,1,107,39.37a8.33,8.33,0,0,1,1.12-4.43,2.9,2.9,0,0,1,5.4,0Zm-1.65,7.54a10.13,10.13,0,0,0,.42-3.11,10.17,10.17,0,0,0-.42-3.13c-.29-.86-.64-1.28-1-1.28s-.74.42-1,1.28a9.84,9.84,0,0,0-.44,3.13,9.79,9.79,0,0,0,.44,3.11c.29.86.63,1.29,1,1.29S111.56,43.34,111.85,42.48Zm9.9,6.06h-2.5V39.12h-1.13v9.42h-2.34V34.26a1.36,1.36,0,0,0-.18-.71c-.12-.21-.25-.31-.39-.31v-.36h2.91v4.31h1.13V32.88h2.5Z"/><path class="cls-3" d="M124.86,40a4,4,0,0,1-1-2.73,4.08,4.08,0,0,1,1.41-3.13,5.13,5.13,0,0,1,6.78,0,4.08,4.08,0,0,1,1.41,3.13,4,4,0,0,1-1,2.65A4.77,4.77,0,0,1,130,41.49v1.95h4v2H123.3v-2h4.17v-1.9A4.78,4.78,0,0,1,124.86,40Zm5.36-.85a2.78,2.78,0,0,0,.66-1.88,2.87,2.87,0,0,0-.66-1.92,2,2,0,0,0-3.2,0,2.88,2.88,0,0,0-.67,1.92,2.79,2.79,0,0,0,.67,1.88,2,2,0,0,0,3.2,0Zm7.45,0v9.4h-2.5V34.26a1.46,1.46,0,0,0-.17-.71.48.48,0,0,0-.41-.31v-.36h3.08v4.31h2.46v2Z"/><path class="cls-3" d="M147.3,35.35v-2H151v-.09a1.51,1.51,0,0,0-.2-.62.41.41,0,0,0-.35-.26h0v-.34h3.08v1.31h3.51v2H155a3.74,3.74,0,0,1,1.13,1.25,3.31,3.31,0,0,1,.41,1.6,3.44,3.44,0,0,1-1.31,2.69A4.74,4.74,0,0,1,152.08,42,4.68,4.68,0,0,1,149,40.89a3.44,3.44,0,0,1-1.31-2.69,3.2,3.2,0,0,1,.41-1.6,3.84,3.84,0,0,1,1.09-1.25Zm14.59,7.1v6.12H159.4V44.38h-9.83V42.45Zm-11.2-6a2.6,2.6,0,0,0,0,3.25,1.78,1.78,0,0,0,2.8,0,2.57,2.57,0,0,0,0-3.25,1.8,1.8,0,0,0-2.8,0Zm6.8.66v-2h1.89v-.85a1.46,1.46,0,0,0-.16-.71c-.11-.21-.24-.31-.41-.31v-.36h3.08v8.57h-2.51V40.29h-1.89v-2h1.89V37.1Z"/><path class="cls-3" d="M171.3,38.28a9.71,9.71,0,0,1,1.15.61,11.52,11.52,0,0,1,1.27.89,9.77,9.77,0,0,1,1.09,1L173,42.43a12.73,12.73,0,0,0-.93-1c-.34-.34-.69-.67-1.07-1s-.56-.44-.86-.64-.62-.41-1-.6a11.21,11.21,0,0,1-2,1.91,10.47,10.47,0,0,1-2.13,1.23l-1.15-1.12a9.92,9.92,0,0,0,1.73-1.35A11.15,11.15,0,0,0,167,38.2a8.63,8.63,0,0,0,.83-1.59,5.94,5.94,0,0,0,.39-1.53,1.66,1.66,0,0,0-.14-1,1,1,0,0,0-.5-.41v-.36h3.85a8,8,0,0,1-.36,2.41,9.23,9.23,0,0,1-1,2.14A8.22,8.22,0,0,1,171.3,38.28Zm-1.7,5.12v3.14h9.47v2h-12V44.77a1.45,1.45,0,0,0-.16-.7c-.12-.21-.25-.31-.4-.31V43.4Zm9.12.43H176.2V34.26a1.58,1.58,0,0,0-.15-.71.48.48,0,0,0-.41-.31v-.36h3.08Z"/><path class="cls-3" d="M188.09,37.49a9.85,9.85,0,0,1,1.22.51,9.23,9.23,0,0,1,1.37.83,4.93,4.93,0,0,1,1,.94l-2,1.67a7.18,7.18,0,0,0-.9-1,7.84,7.84,0,0,0-1.16-1,7.6,7.6,0,0,0-.82-.52c-.29-.15-.59-.29-.89-.41l-.14.15-.13.16a10.49,10.49,0,0,1-3.88,2.65l-1.15-1.1a9.79,9.79,0,0,0,1.78-1.17,7.61,7.61,0,0,0,1.29-1.39,6.68,6.68,0,0,0,.67-1.23,5.34,5.34,0,0,0,.35-1.36h-3.4V33.27h9.39v1.95h-3a6.54,6.54,0,0,1-.33,1,8.59,8.59,0,0,1-.48,1A10.2,10.2,0,0,1,188.09,37.49Zm7.45,5v6.12h-2.49V44.38h-9.83V42.45ZM190,37.91v-2h3V34.26a1.46,1.46,0,0,0-.16-.71c-.11-.21-.24-.31-.41-.31v-.36h3.08v8.57H193V37.91Z"/><path class="cls-3" d="M198.64,45.37V34.71a2,2,0,0,0-.13-.61c-.09-.27-.23-.4-.43-.4v-.36h8.69v1.95h-5.61v8.1h7.29v2ZM210,48.56V34.26a1.36,1.36,0,0,0-.17-.71.48.48,0,0,0-.41-.31v-.36h3.08V48.56Z"/><path class="cls-3" d="M221.18,37.2a10.07,10.07,0,0,1-.7,1.85,8.11,8.11,0,0,1,1.42.87,12.52,12.52,0,0,1,2.47,2.5,6,6,0,0,1,.75,1.32l-2,1.66a10.05,10.05,0,0,0-.6-1.26,13.27,13.27,0,0,0-.85-1.36c-.31-.42-.64-.83-1-1.22a7.76,7.76,0,0,0-1.08-1,15.77,15.77,0,0,1-.86,1.42c-.31.46-.64.9-1,1.31s-.67.78-1,1.15a13.17,13.17,0,0,1-1.09,1l-1.24-1.15a16.17,16.17,0,0,0,1.62-2,15.91,15.91,0,0,0,1.3-2.3,15.19,15.19,0,0,0,.91-2.39,10.26,10.26,0,0,0,.37-2.32H215.4V33.34h8.8v1.95h-2.69A11.72,11.72,0,0,1,221.18,37.2Zm7.66,1.95v9.42h-2.5V34.26a1.36,1.36,0,0,0-.17-.71.48.48,0,0,0-.41-.31v-.36h3.08v4.31h2.46v2Z"/><path class="cls-3" d="M233.25,40.53a4,4,0,0,1-1.38-3.08,4.08,4.08,0,0,1,1.38-3.09,4.95,4.95,0,0,1,6.64,0,4.08,4.08,0,0,1,1.38,3.09,4,4,0,0,1-1.38,3.08,4.95,4.95,0,0,1-6.64,0Zm3.65,2.87v3.14h9.47v2h-12V44.77a1.35,1.35,0,0,0-.17-.7c-.11-.21-.24-.31-.4-.31V43.4ZM235,35.61a2.94,2.94,0,0,0,0,3.66,2,2,0,0,0,1.54.75,2,2,0,0,0,1.55-.75,2.9,2.9,0,0,0,0-3.66,2,2,0,0,0-1.55-.76A1.93,1.93,0,0,0,235,35.61Zm11,8.22H243.5V34.26a1.46,1.46,0,0,0-.16-.71.45.45,0,0,0-.4-.31v-.36H246Z"/><path class="cls-3" d="M269.36,44.41a1.88,1.88,0,0,1,.69,1.38c0,.87-.67,1.6-2,2.22a11.46,11.46,0,0,1-4.81.92,11.24,11.24,0,0,1-4.77-.92c-1.32-.62-2-1.35-2-2.22a1.9,1.9,0,0,1,.71-1.4,5.82,5.82,0,0,1,1.89-1.06V41.76h-3.61V39.81H271v1.95h-3.53v1.61A5.24,5.24,0,0,1,269.36,44.41ZM268,33.61c1.31.65,2,1.43,2,2.34s-.66,1.69-2,2.33a12.05,12.05,0,0,1-9.52,0c-1.31-.64-2-1.42-2-2.33s.66-1.69,2-2.34a12.16,12.16,0,0,1,9.52,0Zm-7.52,1.25c-.77.31-1.15.67-1.15,1.09s.38.77,1.15,1.09A8.37,8.37,0,0,0,266,37c.76-.32,1.14-.68,1.14-1.09s-.38-.78-1.14-1.09a8.37,8.37,0,0,0-5.53,0ZM266,46.78c.75-.28,1.13-.61,1.13-1s-.38-.7-1.13-1a8.05,8.05,0,0,0-2.78-.42,8,8,0,0,0-2.75.42c-.75.28-1.13.61-1.13,1s.38.71,1.13,1a8.21,8.21,0,0,0,2.75.41A8.32,8.32,0,0,0,266,46.78Zm-1.06-5H261.6v1a6.94,6.94,0,0,1,.81-.08q.4,0,.84,0c.31,0,.6,0,.89,0a7,7,0,0,1,.83.09Z"/><path class="cls-3" d="M272.07,35.29V33.38h3.73v-.11a1.41,1.41,0,0,0-.19-.62c-.11-.17-.22-.26-.35-.26h0v-.34h3.08v1.33h3.51v1.91h-1.6a3.43,3.43,0,0,1,.85,1.1,3,3,0,0,1,.3,1.33,3.21,3.21,0,0,1-1.3,2.57,5.12,5.12,0,0,1-6.29,0,3.2,3.2,0,0,1-1.31-2.57,3,3,0,0,1,.3-1.33,3.67,3.67,0,0,1,.83-1.1Zm2.12,13.27V43.7A1.42,1.42,0,0,0,274,43c-.12-.21-.25-.31-.39-.31v-.38h3.06v1.38h7.17V42.31h2.54v6.25ZM275.54,36a2.28,2.28,0,0,0,0,3.06,1.84,1.84,0,0,0,2.79,0,2.34,2.34,0,0,0,0-3.06,1.88,1.88,0,0,0-2.79,0Zm8.32,9.35h-7.17v1.29h7.17ZM286.4,38v3.4h-2.48V34.26a1.46,1.46,0,0,0-.17-.71c-.12-.21-.25-.31-.42-.31v-.36h3.07V36h2.46v2Z"/><path class="cls-3" d="M295.67,36.25a4.46,4.46,0,0,1-.44.92,8.94,8.94,0,0,1,1.17.57,13.31,13.31,0,0,1,1.15.74,11.29,11.29,0,0,1,1.17.91,4.94,4.94,0,0,1,.82.88l-1.86,1.88a6.85,6.85,0,0,0-.64-.94,10.81,10.81,0,0,0-.92-1,12.62,12.62,0,0,0-.93-.87,11.52,11.52,0,0,0-1-.72,11.41,11.41,0,0,1-.83,1c-.3.33-.6.64-.92.93a11.25,11.25,0,0,1-1.19.95,10.1,10.1,0,0,1-1.18.72L289,41.07a9.51,9.51,0,0,0,1.23-1,9.91,9.91,0,0,0,1.33-1.47,12.34,12.34,0,0,0,1.08-1.69,6.39,6.39,0,0,0,.61-1.62h-3.42V33.34h8.8v1.95H296C295.87,35.65,295.77,36,295.67,36.25Zm-1.22,7.15v3.14h9.48v2h-12V44.77a1.45,1.45,0,0,0-.17-.7c-.11-.21-.25-.31-.4-.31V43.4Zm3.6-5.36v-2h3V34.26a1.46,1.46,0,0,0-.16-.71c-.11-.21-.24-.31-.41-.31v-.36h3.08V43.83h-2.51V38Z"/><path class="cls-3" d="M317.26,35.06H307.08v-2h12.7v6.72h1.68v1.94H306V39.83h4.82V38.39a1.53,1.53,0,0,0-.17-.72c-.12-.2-.25-.31-.39-.31V37h3v2.82h4Zm1.21,8.34c1.29.63,1.93,1.39,1.93,2.29s-.64,1.66-1.93,2.28a10.75,10.75,0,0,1-4.75.94A10.6,10.6,0,0,1,309,48c-1.27-.62-1.91-1.39-1.91-2.28S307.74,44,309,43.4a10.74,10.74,0,0,1,4.71-.94A10.9,10.9,0,0,1,318.47,43.4Zm-2,3.32c.72-.29,1.07-.63,1.07-1s-.35-.75-1.07-1a7.28,7.28,0,0,0-2.72-.43,7.16,7.16,0,0,0-2.68.43c-.72.29-1.07.64-1.07,1s.35.74,1.07,1a7.15,7.15,0,0,0,2.68.44A7.27,7.27,0,0,0,316.44,46.72Z"/></g></g></svg>