<?xml version="1.0" encoding="UTF-8"?><svg id="_레이어_2" xmlns="http://www.w3.org/2000/svg" viewBox="0 0 300 300"><defs><style>.cls-1{fill:#B4CBEB;}</style></defs><rect class="cls-1" x="74.83" y="161.96" width="25.65" height="25.65"/><path class="cls-1" d="M257.22,88.76h-1.28v127.94c0,5.01-4.06,9.07-9.07,9.07s-9.07-4.06-9.07-9.07V67.22c0-16.7-13.54-30.24-30.24-30.24H49.2c-16.7,0-30.24,13.54-30.24,30.24V219.49c0,23.72,19.23,42.94,42.94,42.94H244.51c19.88,0,36-16.12,36-36V112.06c0-12.86-10.43-23.29-23.29-23.29ZM118.49,196.61c0,4.97-4.03,9-9,9h-43.65c-4.97,0-9-4.03-9-9v-43.65c0-4.97,4.03-9,9-9h43.65c4.97,0,9,4.03,9,9v43.65Zm72.11,9h-43.69c-4.97,0-9-4.03-9-9s4.03-9,9-9h43.69c4.97,0,9,4.03,9,9s-4.03,9-9,9Zm0-43.65h-43.69c-4.97,0-9-4.03-9-9s4.03-9,9-9h43.69c4.97,0,9,4.03,9,9s-4.03,9-9,9Zm0-49.79H65.83c-4.97,0-9-4.03-9-9s4.03-9,9-9h124.76c4.97,0,9,4.03,9,9s-4.03,9-9,9Z"/></svg>