<?xml version="1.0" encoding="UTF-8"?><svg id="_레이어_2" xmlns="http://www.w3.org/2000/svg" viewBox="0 0 300 300"><defs><style>.cls-1{fill:#B4CBEB;}</style></defs><path class="cls-1" d="M179.54,106.15h64.72L167.63,29.52V94.24c0,6.58,5.33,11.91,11.91,11.91Z"/><path class="cls-1" d="M178.78,124.1c-16.07,0-29.1-13.03-29.1-29.1V24.13H78.81c-16.07,0-29.1,13.03-29.1,29.1V245.99c0,16.07,13.03,29.1,29.1,29.1H211.92c-32.45-.16-59.05-25.03-61.96-56.76h-41.05c-4.97,0-9-4.03-9-9s4.03-9,9-9h41.97c1.89-9.54,5.95-18.3,11.65-25.75h-53.63c-4.97,0-9-4.03-9-9s4.03-9,9-9h75.39c8.41-4.2,17.89-6.58,27.93-6.58,14.03,0,26.98,4.62,37.42,12.42v-38.32h-70.87Z"/><path class="cls-1" d="M212.23,275.1c.1,0,.21,0,.31,0h-.62c.1,0,.21,0,.31,0Z"/><path class="cls-1" d="M212.23,262.28c-27.42,0-49.73-22.31-49.73-49.73s22.31-49.73,49.73-49.73,49.73,22.31,49.73,49.73-22.31,49.73-49.73,49.73Zm0-81.46c-17.5,0-31.73,14.23-31.73,31.73s14.24,31.73,31.73,31.73,31.73-14.24,31.73-31.73-14.24-31.73-31.73-31.73Z"/><path class="cls-1" d="M277.89,287.41c-2.3,0-4.61-.88-6.36-2.64l-36.96-36.96c-3.51-3.51-3.51-9.21,0-12.73,3.52-3.51,9.21-3.51,12.73,0l36.96,36.96c3.51,3.51,3.51,9.21,0,12.73-1.76,1.76-4.06,2.64-6.36,2.64Z"/></svg>