<?xml version="1.0" encoding="UTF-8"?><svg id="_레이어_2" xmlns="http://www.w3.org/2000/svg" viewBox="0 0 300 300" transform="scale(-1,1)"><defs><style>.cls-1{fill:none;stroke:#B4CBEB;stroke-linecap:round;stroke-linejoin:round;stroke-width:11px;}.cls-2{fill:#B4CBEB;}</style></defs><path class="cls-2" d="M98.56,245.75c.69,.77,1.39,1.55,2.1,2.33,.78-2.22,2.03-4.3,3.8-6.08-1.73,1.73-3.75,2.96-5.9,3.74Z"/><path class="cls-2" d="M53.65,199.84l1.73,1.67c.79-1.87,1.93-3.62,3.45-5.14-1.53,1.53-3.3,2.68-5.18,3.47Z"/><path class="cls-2" d="M77.04,222.39l1.42,1.37c.77-1.65,1.82-3.2,3.19-4.57-1.37,1.37-2.94,2.43-4.6,3.2Z"/><path class="cls-2" d="M258.88,184.39l-81.95-84s-8.79,4.54-30.05,13.04c-21.26,8.5-43.09,7.09-54.71-1.42-4.84-3.54-9.05-7.43-12.3-10.76-3.86-3.95-2.73-10.53,2.19-13.03,17.86-9.05,57.2-28.92,84.44-42.26H56.73S24.13,35.47,0,33.77V169.65c19.71,6.43,30.56,7.94,30.56,7.94l1.77,1.7c.78-2.09,2-4.05,3.68-5.73l5.38-5.38c6.3-6.3,16.52-6.3,22.82,0h0c6.3,6.3,6.3,16.52,0,22.82,6.3-6.3,16.52-6.3,22.82,0h0c6.3,6.3,6.3,16.52,0,22.82,6.3-6.3,16.52-6.3,22.82,0h0c6.3,6.3,6.3,16.52,0,22.82,6.3-6.3,16.52-6.3,22.82,0s6.3,16.52,0,22.82l-5.38,5.38c-2.07,2.07-4.56,3.44-7.19,4.15,7.37,7.6,13.92,13.84,17.43,15.94,11.34,6.8,22.96,7.37,29.2,2.27,6.24-5.1,9.07-6.8,10.77-20.69,7.94,.57,17.57,0,23.53-4.82,5.95-4.82,8.22-7.94,9.35-19.28,0,0,15.87,.57,22.39-5.1,6.52-5.67,9.35-10.49,10.2-24.09,0,0,11.62,1.42,18.99-5.67,7.37-7.09,10.77-14.74,5.72-30.72h0c-2.67,1.65-5.32,4-8.8,7.57Z"/><path class="cls-1" d="M300,38.69s-18.03,5.09-33.79,8.69c-15.68,3.59-21.83,0-33.73-7.09-11.91-7.09-21.54-14.46-40.25-6.52-4.57,1.94-14.03,6.46-25.73,12.19-27.23,13.34-66.58,33.21-84.44,42.26-4.93,2.5-6.06,9.08-2.19,13.03,3.26,3.33,7.46,7.22,12.3,10.76,11.62,8.5,33.45,9.92,54.71,1.42,21.26-8.5,30.05-13.04,30.05-13.04l81.95,84c3.48-3.57,6.13-5.92,8.8-7.57,6.46-3.98,13.12-3.81,32.32-6.41"/><path class="cls-1" d="M132.67,236.63c-6.3-6.3-16.52-6.3-22.82,0l-5.38,5.38c-1.77,1.77-3.03,3.86-3.8,6.08-1.98,5.67-.73,12.21,3.8,16.74,4.23,4.23,10.23,5.61,15.63,4.15,2.63-.71,5.13-2.09,7.19-4.15l5.38-5.38c6.3-6.3,6.3-16.52,0-22.82Z"/><path class="cls-1" d="M109.85,213.81h0c-6.3-6.3-16.52-6.3-22.82,0l-5.38,5.38c-1.36,1.36-2.41,2.92-3.19,4.57-2.8,5.98-1.75,13.31,3.19,18.25,4.58,4.58,11.21,5.81,16.92,3.74,2.15-.78,4.18-2.02,5.9-3.74l5.38-5.38c6.3-6.3,6.3-16.52,0-22.82Z"/><path class="cls-1" d="M87.03,190.99h0c-6.3-6.3-16.52-6.3-22.82,0l-5.38,5.38c-1.52,1.52-2.66,3.27-3.45,5.14-2.47,5.87-1.33,12.9,3.45,17.68h0c4.93,4.93,12.24,5.98,18.22,3.2,1.66-.77,3.23-1.83,4.6-3.2l5.38-5.38c6.3-6.3,6.3-16.52,0-22.82Z"/><path class="cls-1" d="M64.21,168.17h0c-6.3-6.3-16.52-6.3-22.82,0l-5.38,5.38c-1.68,1.68-2.9,3.64-3.68,5.73-2.16,5.74-.94,12.47,3.68,17.09h0c4.77,4.77,11.78,5.92,17.64,3.47,1.88-.79,3.65-1.94,5.18-3.47l5.38-5.38c6.3-6.3,6.3-16.52,0-22.82Z"/></svg>